<?xml version="1.0" encoding="UTF-8"?>
<svg id="Layer_1" xmlns="http://www.w3.org/2000/svg" xmlns:xlink="http://www.w3.org/1999/xlink" version="1.1" viewBox="0 0 524.33 390.19">
  <!-- Generator: Adobe Illustrator 30.4.0, SVG Export Plug-In . SVG Version: 2.1.4 Build 226)  -->
  <defs>
    <style>
      .st0 {
        fill: #264759;
      }

      .st1 {
        fill: #e2c06b;
      }

      .st2 {
        fill: #fdd303;
      }

      .st3 {
        fill: #3e1212;
      }

      .st4 {
        fill: url(#linear-gradient1);
      }

      .st5 {
        fill: url(#radial-gradient);
      }

      .st6 {
        fill: url(#linear-gradient);
      }

      .st7, .st8 {
        stroke-miterlimit: 10;
      }

      .st7, .st8, .st9, .st10 {
        fill: #94bfce;
      }

      .st7, .st8, .st10 {
        stroke: #94bfce;
      }

      .st8 {
        stroke-width: 4px;
      }

      .st11 {
        fill: #fff;
      }

      .st12 {
        fill: #36677d;
      }

      .st13 {
        fill: #d0e5ed;
      }

      .st14, .st15 {
        fill: #621412;
      }

      .st16 {
        fill: #a30000;
      }

      .st17 {
        fill: #f2bba9;
      }

      .st18 {
        fill: url(#radial-gradient1);
      }

      .st19 {
        fill: url(#radial-gradient2);
      }

      .st10 {
        stroke-linejoin: round;
        stroke-width: 5px;
      }

      .st20 {
        fill: #ec1c24;
      }

      .st15 {
        isolation: isolate;
        opacity: .3;
      }

      .st21 {
        fill: #e09326;
      }
    </style>
    <radialGradient id="radial-gradient" cx="315.58" cy="515.76" fx="315.58" fy="515.76" r="25.8" gradientTransform="translate(0 727.78) scale(1 -1)" gradientUnits="userSpaceOnUse">
      <stop offset="0" stop-color="#f6901e"/>
      <stop offset=".24" stop-color="#f6941c"/>
      <stop offset=".49" stop-color="#f7a017"/>
      <stop offset=".74" stop-color="#f9b50e"/>
      <stop offset="1" stop-color="#fcd203"/>
      <stop offset="1" stop-color="#fdd303"/>
    </radialGradient>
    <radialGradient id="radial-gradient1" cx="208.41" cy="515.76" fx="208.41" fy="515.76" r="25.8" xlink:href="#radial-gradient"/>
    <linearGradient id="linear-gradient" x1="338.43" y1="615.61" x2="323.99" y2="598.54" gradientTransform="translate(0 727.78) scale(1 -1)" gradientUnits="userSpaceOnUse">
      <stop offset="0" stop-color="#fbb017"/>
      <stop offset=".72" stop-color="#fdd303"/>
      <stop offset="1" stop-color="#fdd303"/>
    </linearGradient>
    <linearGradient id="linear-gradient1" x1="183.98" y1="619.51" x2="203.67" y2="595.88" xlink:href="#linear-gradient"/>
    <radialGradient id="radial-gradient2" cx="262.7" cy="538.84" fx="262.7" fy="538.84" r="4.9" gradientTransform="translate(0 727.78) scale(1 -1)" gradientUnits="userSpaceOnUse">
      <stop offset="0" stop-color="#643025"/>
      <stop offset="1" stop-color="#3f160b"/>
    </radialGradient>
  </defs>
  <g id="Layer_2">
    <g>
      <g>
        <path class="st1" d="M212.99,230.08c-1.43-1.36-3.33-2.13-5.3-2.08-10.65.31-22.93-10.35-28.83-15.67-.99-.89-2.5.17-2.01,1.42,2.05,5.34,7.19,14.57,19.7,22.85,5.86,3.87,13.43,5.67,21.65,6.74,2.4.32,4.79.54,7.11.68,1.31.07,1.94-1.62.9-2.43-4.48-3.54-8.9-7.38-13.22-11.47v-.04h0Z"/>
        <path class="st9" d="M369.96,194.32c.77,2.01,3.74,1.64,3.98-.49,1.6-12.89-5.11-27.88-13.33-37.36-8.23-9.48-20.36-16.02-33.23-15.98-13.4.06-25.17,6.96-34.43,16.25-4.71,4.73-8.69,10.11-12.58,15.52-7.17,10.01-9.99,11.66-5.51,16.82l4.03,4.68c2.25,2.62,4.46,3.95,7.26,1.93,6.47-4.62,14.76-9.92,21.59-13.98,7.6-4.5,15.93-8.8,24.9-9.54,8.76-.73,17.97,1.52,25.13,6.56,5.47,3.84,9.94,9.22,12.16,15.6h.01s0-.02,0-.02Z"/>
        <path class="st13" d="M253.08,252.96c57.99,41.96,144.97,27.5,151.51-50.19,2.1-24.86-9.51-56.76-43.23-71.71-18.81-8.34-39.81-8.35-55.68,2.86-2.42,1.71-.46,5.47,2.31,4.41,15.39-5.95,34.95-4.54,50.67,8.98,19.72,16.97,28.79,49.49,10.8,70.97-5.93,7.07-14.13,12.29-23.36,13.6-16.37,2.31-33.01-3.27-46.64-12.09-7.39-4.78-14.11-10.57-19.96-17.15-7.01-7.91-13.69-16.12-19.86-24.71-10.37-14.48-19.22-29.06-34.36-39.13-12.41-8.26-27.2-12.99-42.16-12.05-14.97.93-30.12,8.21-41.5,18.88-20.51,19.25-24.21,51.54-11.27,76.64,9.3,18.08,25.31,31.07,43.39,39.57,3.33,1.58,5.48-2.23,3.42-4.12-17.06-15.53-32.85-40.13-27.27-60.13,3.37-12.25,10.04-17.22,20.48-17.09,7.78.04,18.07,9.24,23.05,15.94,1.83,2.45,3.65,4.89,5.56,7.26,13.55,17.01,26.38,30.18,54.1,49.27h0Z"/>
        <path class="st9" d="M243.16,252.32c-.65-.43-1.4-.68-2.2-.69-4.17-.07-13.19-.1-19.23-.78-32.34-2.82-62.36-32.1-53.24-62.7.39-1.29-.81-2.53-2.11-2.21-11.31,2.84-14.72,18.04-10.87,31.04.04.12.08.25.12.38,14.72,39.95,62.09,69.12,97.36,48.73.36-.21.68-.47.97-.78,0,0,.01-.03.04-.04,1.68-1.82,1.36-4.73-.71-6.11l-10.14-6.82h0v-.02Z"/>
        <path class="st0" d="M190.74,203.1c-9.27-11.67-17.63-17.72-17.61-3.71,0,2.5,1.36,4.83,3.55,6.15,8.73,5.27,16.81,13.71,26.13,16.14,1.59.41,2.77-1.45,1.65-2.6-4.66-4.92-9.03-10.08-13.72-15.94v-.03h0Z"/>
        <path class="st0" d="M317.62,223.48c-2.39-.97-2.98-4.06-1.15-5.87,5.48-5.37,11.09-10.66,16.99-15.59,3.2-2.67,6.65-5.15,10.22-7.35,3.57-2.2,7.53-4.02,11.27-6.08,2.24-1.23,4.93-.57,6.43,1.43,3.32,4.43,8.04,12.62,5.78,21.21-3.36,12.76-21.75,15.59-21.75,15.59,0,0-14.39,2.12-27.79-3.36h0s0,.01,0,.01Z"/>
        <path class="st0" d="M246.7,278.77l-.1-.1c-2.37-2.34-6-3.38-9.51-2.78-9.34,1.63-18.86,1.74-28.91.38-27.99-3.78-58.71-15.86-75.43-39.98-4.89-7.03-7.15-5.34-5.3,2.7,8.29,36.06,33.33,48.82,65.27,53.03,21.37,2.82,36.1-1.39,52.53-8.44,2.32-.71,3.07-3.23,1.44-4.83h.01s0,.02,0,.02Z"/>
        <path class="st0" d="M256.69,289.49c-1.58-1.41-3.75-1.74-5.65-.93-5.54,2.35-11.11,4.87-22.91,7.65-2.49.51-3.22,4.37-1.39,6.26,9.61,9.94,23.94,21.91,50.69,29.23,23.41,6.4,47.37,1.85,65.96-13.22,1.82-1.47,2.08-4.73-2.08-4.17-4.92.66-13.19,1.39-20.14,1.39-21.52-1.39-49.1-12.62-64.47-26.21h0Z"/>
        <path class="st12" d="M219.27,304.4c-3.48-3.52-8.3-5.3-13.24-5-26.51-.4-26.7-3.21-40.4-6.67-3.54-.89-7.43,3.67-4.86,6.26,25.69,27.14,60.81,44.54,100.68,44.54,4.87,0,11.9-.22,16.66-.69,2.08-.21,2.03-3.65,0-4.17-36.8-10.44-49.44-24.75-58.84-34.27h-.01,0Z"/>
        <path class="st12" d="M395.61,255.15c.67-1.96-1.97-3.31-3.14-1.58-32.41,36.39-85.68,35.2-121.98,18.11-3.25-1.53-6.76-3.93-9.99-2.35-1.75.85-3.48,1.64-5.22,2.35-2.55,1.06-3.26,4.34-1.38,6.37,23.95,25.9,81.15,46.01,116.56,15.38,13.19-11.83,19.38-21.21,25.15-38.28h-.01,0Z"/>
        <path class="st1" d="M350.14,185.17c2.66-1.21,2.51-5.11-.29-5.97-5.91-1.84-15.17-4.44-28.8,1.57-14.69,6.47-25.73,15.2-30.92,18.99-1.51,1.1-1.78,3.28-.54,4.69,2.75,3.13,8.19,8.39,16.69,12.49,1.33.64,2.93.31,3.87-.84,5.04-6.08,26.09-24.61,40-30.93h0Z"/>
        <path class="st12" d="M316.67,121.38c16.18-6.17,41.02-3.29,66.05,15.61,1.56,1.6,4.21-.16,3.26-2.16-11.9-19.69-22.33-32.26-42.74-46.34-7.16-4.94-16.35-6.22-24.66-3.44-2.88.97-5.85,1.97-8.94,3.02-2.2.75-4.46,1.51-6.76,2.29-16.16,5.46-30.8,7.65-45.06,7.84-17.41.23-26.52-1.34-44.88-4.85-5.56-1.06-17.03-3.41-21.95-3.69-4.93-.28-11.33,1.81-15.13,4.87-4.85,3.9-.35-.32-4.6,4.17-2.24,2.37-1.31,4.33,3.77,5.33,16.88,3.29,38.3,18.07,47.97,24.78,41.52,33.66,65.75,3.22,93.66-7.41h0Z"/>
        <path class="st0" d="M263.03,172.54c3.42,4.62,8.14,1.99,9.4,0,6.42-10.19,14.18-19.39,25.82-27.6,2.74-2.74-1.04-7.26-3.78-5.2-19.39,8.51-25.35,11.82-41.02,10.9-2.06-.33-5.48,1.37-2.74,4.79,2.74,4.11,6.47,9.23,12.32,17.11h0Z"/>
        <path class="st0" d="M300.98,84.47c2.26-.8,4.47-1.59,6.62-2.36,2.92-1.04,5.74-2.05,8.49-3.01,2.99-1.05,3.14-5.34.23-6.6-16.61-7.17-34.92-11.02-54.11-10.77-22.6.31-43.82,6.29-62.4,16.58-2.95,1.63-2.11,6.15,1.21,6.62,2.2.31,4.44.69,6.72,1.16,32.03,6.46,59.22,10.45,93.25-1.62h0s0,0,0,0Z"/>
        <path class="st12" d="M188.44,121.22c9.58.69,7.53-2.74,3.42-4.79-11.28-5.64-17.11-6.84-23.27-8.9-4.79-1.6-8.21.69-10.95,4.11-3.02,3.78-11.96,13.87-14.37,19.16-2.12,4.64,1.91,6.07,5.09,3.96,11.1-7.41,21.61-12.86,40.08-13.54Z"/>
      </g>
      <path class="st16" d="M308.75,318.77c0,5.07-20.56,9.19-45.92,9.19s-45.92-4.11-45.92-9.19,20.56-9.19,45.92-9.19,45.92,4.11,45.92,9.19Z"/>
      <g>
        <path class="st3" d="M222.2,269.11c-2.36,0-4.86-.21-7.45-.67-8.69-1.56-16.19-8.94-18.26-13.66-.73-1.68-.77-3.05-.12-4.07,1.63-2.56,6.45-5.61,6.99-5.95.05-.03.1-.06.15-.09,3.21-1.61,4.17-1.54,6.4.43.84.74,2.11,1.87,4.52,3.36,5.69,3.51,11.89-2.02,12.16-2.26.35-.32.81-.5,1.28-.5,1.29,0,7.5.97,9.37,1.26.54.08,1.02.4,1.31.87s.37,1.04.2,1.56c-.54,1.74-.61,9.29-.54,13.63,0,.41-.12.81-.35,1.14-1.96,2.74-8.02,4.94-15.67,4.94h0Z"/>
        <path class="st2" d="M199.71,252.54c.29,2.18,6.99,10.59,15.71,12.16,9.44,1.7,16.91-.48,18.99-2.34-.03-2.43-.06-8.36.34-11.94-2.56-.39-5.06-.74-6.25-.87-2.14,1.7-9.13,6.42-16.06,2.14-2.69-1.66-4.11-2.92-5.05-3.74-.24-.21-.5-.45-.67-.58-.35.12-1.04.46-1.43.65-1.7,1.07-4.56,3.14-5.58,4.52h0Z"/>
        <g>
          <path class="st2" d="M243.69,237.9h0,0Z"/>
          <g>
            <path class="st3" d="M331.14,239.51c-4.85,0-11.63,2.4-16.35,13.86-2.63,6.38-3.71,13.39-3.93,16.52-.25,3.47-3.84,12.32-10.85,12.6-4.63.17-7.66-1.49-9.27-2.74,1.27,3.94,2.23,8.03,2.95,12.2,1.69.39,3.56.62,5.6.62.36,0,.73,0,1.11-.02,13.24-.53,19.97-14.79,20.49-21.94.52-7.34,4.5-21.04,10.25-21.04,2.78,0,5.03-2.26,5.03-5.03s-2.26-5.03-5.03-5.03h0Z"/>
            <path class="st2" d="M331.14,243c-5.43,0-9.97,4.05-13.13,11.7-2.46,5.97-3.47,12.51-3.68,15.44-.37,5.17-5.05,15.47-14.19,15.84-.29.01-.57.01-.85.01-2.91,0-5.29-.62-7.18-1.43.3,1.19.58,2.38.84,3.58,1.83.57,3.94.95,6.35.95.32,0,.65,0,.97-.02,11.06-.44,16.71-12.6,17.14-18.71.35-4.82,3.86-24.27,13.72-24.27.85,0,1.54-.69,1.54-1.54s-.69-1.54-1.54-1.54h0Z"/>
            <path class="st11" d="M331.14,246.09c.85,0,1.54-.69,1.54-1.54s-.69-1.54-1.54-1.54c-2.24,0-4.34.7-6.24,2.05.38.94.83,1.9,1.38,2.84,1.42-1.13,3.03-1.8,4.86-1.8h0Z"/>
            <g>
              <path class="st3" d="M326.01,247.41c-.58-.89-1.12-2.28-1.41-3.05-.35.21-.79.56-1.15.82-.05.04,2.51,2.27,2.56,2.24"/>
              <path class="st3" d="M317.99,253.56c1.09.25,3.32.46,3.1.37-.88-.38-2.04-1.26-2.5-1.66-.2.41-.4.84-.6,1.28"/>
              <path class="st3" d="M321.55,249.16s-.03.04-.04.06c.38.44,1.38,1.59,2.25,2.42.23-.36.47-.69.73-1.02-.87-.4-2.16-1-2.93-1.46"/>
              <path class="st3" d="M317.65,256.84s-.02.05-.03.07c.48.32,1.76,1.16,2.82,1.71.12-.41.27-.8.42-1.18-.95-.14-2.35-.38-3.22-.6"/>
            </g>
          </g>
          <path class="st3" d="M289.31,269.67c-2.23,8.86-8.72,16.23-17.14,19.74-.76.34-1.51.62-2.28.88,3.45,10.36,4.44,17.56,5.1,22.45.56,4.08.89,6.55,2.31,8.2,1.44,1.68,4.36,2.29,7.37,2.29,2.17,0,4.38-.32,6.1-.78,4.02-1.09,6.49-3.11,6.96-5.69,1.28-7.04-6.04-37.45-8.44-47.06h0Z"/>
          <path class="st2" d="M286.93,275.92c-2.95,5.61-7.73,10.18-13.51,12.92,3.63,10.82,4.65,18.3,5.34,23.37.42,3.04.74,5.44,1.43,6.24.71.83,5.15,1.52,9.61.31,2.38-.65,4.04-1.71,4.22-2.71.89-4.92-3.78-26.31-7.08-40.13h0Z"/>
          <path class="st3" d="M235.85,271.11c-2.69,10.9-9.3,38.9-8.08,45.62.47,2.59,2.94,4.6,6.96,5.7,1.72.46,3.94.78,6.11.78,3.01,0,5.94-.61,7.37-2.29,1.42-1.65,1.75-4.12,2.31-8.2.66-4.88,1.65-12.05,5.07-22.36-8.84-2.7-16.43-10.18-19.75-19.26h0Z"/>
          <path class="st2" d="M238.45,276.53c-3.3,13.83-7.82,34.67-6.94,39.52.18,1,1.84,2.06,4.22,2.71,4.46,1.21,8.9.52,9.61-.31.69-.8,1.02-3.2,1.43-6.24.69-5.05,1.71-12.48,5.29-23.2-5.54-2.59-10.35-7.04-13.6-12.47h0Z"/>
          <path class="st11" d="M294.04,312.46c-1.07.41-7.17,2.62-14.86,2.63.27,1.62.56,2.84,1.01,3.36.71.83,5.15,1.52,9.61.31,2.38-.65,4.04-1.71,4.22-2.71.15-.8.14-2.04.02-3.6h0Z"/>
          <path class="st11" d="M231.48,312.46c-.12,1.56-.12,2.8.02,3.6.18,1,1.84,2.06,4.22,2.71,4.46,1.21,8.9.52,9.61-.31.45-.53.75-1.74,1.01-3.36-7.69-.01-13.79-2.22-14.86-2.63h0Z"/>
          <path class="st2" d="M236.64,248.16c-.3,6.2-.69,18.01.22,23.63,1.48,9.13,10.61,17.02,13.57,17.76,2.89.72,9.05,1.44,12.33,1.25,3.28.19,9.44-.53,12.33-1.25,2.96-.74,12.08-9,13.56-17.76.95-5.61.54-17.39.23-23.6-16.97,4.14-34.78,2.78-52.24-.03Z"/>
          <path class="st3" d="M263.08,292.75c-.38,0-.75,0-1.12-.02-3.01.14-6.36-.32-8.66-.72-1.03-.18-1.72-1.16-1.54-2.2.18-1.03,1.17-1.73,2.2-1.54,2.13.37,5.23.79,7.91.66h.19c3.4.17,7.45-.54,9.57-.98,1.03-.21,2.03.45,2.24,1.48.21,1.03-.45,2.03-1.48,2.24-2.05.42-5.81,1.08-9.31,1.08h0Z"/>
          <path class="st3" d="M262.76,252.87c-16.51,0-41.06-3.44-56.45-10.98-.91.24-1.72.46-2.44.66-4.38,1.23-6.58,1.84-10.67-1.15-3.31-2.41-3.67-6.52-3.44-9.34-2.8.43-6.97.3-10.15-3.1-1.59-1.71-2.34-3.69-2.22-5.89.12-2.25,1.17-4.35,2.31-5.99-.72-.16-1.47-.42-2.2-.83-1.94-1.09-3.25-2.95-3.89-5.51-1.48-5.92,2.59-9.67,5.29-12.16.31-.28.6-.55.87-.81-.52-3.56-.78-7.3-.78-11.1,0-23.41,8.23-43.45,23.8-57.96,15.05-14.01,36.35-21.74,59.97-21.74s44.93,7.72,59.97,21.74c15.57,14.51,23.8,34.55,23.8,57.96,0,3.8-.26,7.53-.78,11.09.3.27.62.57.95.86,2.65,2.36,6.66,5.93,5.21,12.08-.6,2.56-1.88,4.42-3.81,5.52-.75.43-1.53.7-2.28.86,1.13,1.64,2.18,3.73,2.3,5.97.12,2.2-.63,4.18-2.22,5.89-3.16,3.39-7.32,3.53-10.12,3.11.26,2.89-.08,7.08-3.54,9.39-4.46,2.97-6.85,2.32-11.6,1.02-.66-.18-1.39-.38-2.18-.59-15.37,7.54-39.54,10.98-55.71,10.98h0Z"/>
          <path class="st2" d="M206.53,237.98c.3,0,.59.07.86.2,14.79,7.49,39.07,10.89,55.38,10.89s39.86-3.41,54.64-10.89c.41-.21.88-.26,1.32-.15,1.1.28,2.07.54,2.93.78,4.53,1.24,5.47,1.5,8.5-.52,3.16-2.1,1.47-8.18,1.45-8.24-.21-.7,0-1.45.54-1.94s1.31-.62,1.99-.35c.23.09,5.67,2.19,9-1.39.87-.93,1.27-1.95,1.21-3.09-.15-2.8-2.95-5.83-4.02-6.76-.68-.59-.85-1.57-.42-2.35.43-.78,1.36-1.16,2.22-.89.01,0,2.36.68,4.12-.34.98-.57,1.62-1.58,1.98-3.09.93-3.95-1.6-6.21-4.04-8.38-.67-.59-1.3-1.16-1.84-1.74-.4-.43-.58-1.01-.48-1.59.58-3.66.89-7.51.89-11.46,0-44.69-32.89-75.9-79.98-75.9s-79.98,31.21-79.98,75.9c0,3.95.3,7.8.88,11.46.09.58-.09,1.16-.48,1.59-.5.54-1.09,1.08-1.7,1.65-2.99,2.76-5.05,4.98-4.18,8.45.38,1.53,1.05,2.55,2.05,3.12,1.75,1,4.05.35,4.07.34.86-.26,1.78.12,2.21.91.43.78.26,1.76-.42,2.35-1.07.93-3.87,3.96-4.02,6.76-.06,1.14.34,2.16,1.21,3.09,3.34,3.57,8.78,1.47,9.01,1.38.67-.27,1.44-.13,1.97.35.54.48.75,1.23.55,1.93-.02.06-1.59,6.05,1.51,8.3,2.62,1.9,3.25,1.72,7.42.56.92-.26,1.97-.55,3.2-.86.15-.04.31-.06.46-.06h0Z"/>
          <path class="st5" d="M340.32,216.52c-.68-.59-.85-1.57-.42-2.35.31-.54.85-.89,1.44-.96.02-.39.03-.79.03-1.19,0-14.25-11.55-25.8-25.8-25.8s-25.79,11.55-25.79,25.8,11.55,25.8,25.79,25.8c6.22,0,11.93-2.2,16.38-5.87-.14-1.09-.35-1.88-.36-1.89-.21-.7,0-1.45.54-1.94s1.31-.62,1.99-.35c.07.03.66.25,1.53.44,2.56-3.18,4.39-6.99,5.21-11.15-.21-.21-.41-.39-.56-.53h0Z"/>
          <path class="st18" d="M208.42,186.22c-14.25,0-25.8,11.55-25.8,25.8,0,.47.01.93.04,1.4.45-.06.74-.15.75-.15.86-.26,1.78.12,2.21.91.43.78.26,1.76-.42,2.35-.42.36-1.09,1.04-1.78,1.9.95,3.71,2.7,7.1,5.06,9.98,1.59-.15,2.8-.61,2.9-.65.67-.27,1.44-.13,1.97.35.54.48.75,1.23.55,1.93,0,.03-.36,1.39-.4,3.04,4.21,2.98,9.34,4.75,14.9,4.75,14.25,0,25.79-11.56,25.79-25.8s-11.55-25.8-25.79-25.8h0Z"/>
          <path class="st11" d="M205.25,209.17c0,1.11.9,2.01,2.01,2.01s2.01-.9,2.01-2.01-.9-2.01-2.01-2.01-2.01.9-2.01,2.01Z"/>
          <path class="st11" d="M323.01,208.29c0,1.11-.9,2.01-2.01,2.01s-2.01-.9-2.01-2.01.9-2.01,2.01-2.01,2.01.9,2.01,2.01Z"/>
          <path class="st3" d="M211.07,174.11c-1.71,1.99-2.8,4.94-2.8,8.25,0,5.99,3.55,10.85,7.94,10.85s7.95-4.86,7.95-10.85c0-1.43-.21-2.79-.58-4.03-4.17-1.6-8.34-3.05-12.51-4.22h0Z"/>
          <g>
            <g>
              <path class="st3" d="M239.15,277.67c-.19.11-.42.05-.54-.14-.33-.51-.58-1.07-.84-1.62-.09-.2,0-.43.19-.52.2-.08.43,0,.52.19.25.53.49,1.06.81,1.56.11.18.04.42-.14.53h0Z"/>
              <path class="st3" d="M241.33,280.74c-.17.14-.42.11-.55-.06-.39-.46-.74-.96-1.09-1.46-.12-.18-.08-.42.1-.54.18-.12.42-.08.54.1.33.49.67.97,1.06,1.42.13.16.11.41-.06.55h0Z"/>
              <path class="st3" d="M243.88,283.5c-.15.15-.4.16-.55,0-.43-.42-.85-.85-1.25-1.31-.15-.16-.13-.41.03-.55s.41-.13.55.03c.39.45.8.87,1.23,1.28.15.15.15.4,0,.55h0Z"/>
              <path class="st3" d="M246.71,285.99c-.13.17-.38.19-.55.06-.46-.39-.94-.76-1.38-1.17-.16-.15-.17-.39-.03-.55s.39-.17.55-.03c.43.41.9.77,1.35,1.15.16.14.19.39.05.55h0Z"/>
              <path class="st3" d="M249.79,288.15c-.11.19-.35.24-.54.12-.52-.31-1-.68-1.51-1.02-.17-.13-.21-.38-.08-.55s.37-.21.54-.08c.49.33.97.69,1.47.99.18.11.23.35.12.54h0Z"/>
              <path class="st3" d="M253.21,289.68c-.05.21-.26.34-.47.29-.29-.06-.61-.19-.91-.29l-.84-.39c-.19-.11-.27-.35-.16-.54s.34-.26.52-.16l.78.37c.27.09.5.19.8.26.21.05.34.26.29.47h0Z"/>
            </g>
            <g>
              <path class="st3" d="M286.37,277.67c-.19-.11-.25-.35-.14-.53.32-.5.56-1.03.81-1.56.09-.19.33-.27.53-.19.2.08.28.32.19.52-.27.55-.51,1.11-.84,1.62-.11.19-.35.25-.54.14h0Z"/>
              <path class="st3" d="M284.19,280.74c-.17-.14-.19-.39-.06-.55.38-.45.73-.93,1.06-1.42.12-.17.37-.22.54-.09.18.12.23.36.1.54-.34.5-.69,1-1.09,1.46-.14.17-.39.19-.55.06h0Z"/>
              <path class="st3" d="M281.64,283.5c-.15-.15-.15-.4,0-.55.42-.41.84-.84,1.23-1.28.14-.16.39-.17.55-.03s.17.39.03.55c-.4.46-.82.89-1.25,1.31-.15.15-.4.15-.55,0h0Z"/>
              <path class="st3" d="M278.81,285.99c-.13-.17-.11-.42.05-.55.46-.38.92-.74,1.35-1.15.16-.14.41-.13.55.03.15.16.13.41-.03.55-.44.41-.92.79-1.38,1.17-.17.14-.41.12-.55-.06h0Z"/>
              <path class="st3" d="M275.73,288.15c-.11-.19-.06-.42.12-.54.5-.31.98-.66,1.47-.99.17-.13.41-.09.54.08.13.17.09.42-.08.55-.5.34-.99.7-1.51,1.02-.19.12-.43.06-.54-.12h0Z"/>
              <path class="st3" d="M272.31,289.69c-.05-.21.08-.42.29-.47.3-.06.53-.17.8-.26l.78-.37c.19-.1.42-.03.52.16.1.19.03.43-.16.54l-.84.39c-.3.1-.62.23-.91.29-.21.05-.42-.08-.47-.29h0Z"/>
            </g>
          </g>
          <path class="st3" d="M238.73,272.05c.03-.18.04-.37,0-.56-.87-5.38-.49-16.86-.2-23.03-1.26-.19-2.52-.4-3.78-.61-.3,6.2-.73,18.35.23,24.24.03.19.1.37.18.54.5,2.06,1.97,3.4,1.97,3.4l2.22,1.39-.63-5.37h0Z"/>
          <path class="st3" d="M290.76,247.71c-1.25.34-2.5.64-3.76.92.3,6.23.68,17.53-.22,22.85l-.05.26c-.04.23-.03.45,0,.67l-.58,5.01,2.22-1.39s1.28-1.16,1.85-2.99c.12-.19.2-.41.24-.65l.05-.3c1-5.94.55-18.21.23-24.4h0Z"/>
          <path class="st11" d="M272.38,278.4c0,6.01-4.31,8.65-9.62,8.65s-9.62-2.65-9.62-8.65,4.31-10.87,9.62-10.87,9.62,4.87,9.62,10.87Z"/>
          <path class="st3" d="M266.07,280.91l-1.87-1.78,1.87-1.79c.44-.42.46-1.12.04-1.57-.42-.44-1.13-.46-1.57-.04l-1.94,1.86-1.95-1.85c-.44-.42-1.15-.4-1.57.04-.42.44-.4,1.15.04,1.57l1.87,1.78-1.86,1.79c-.44.42-.46,1.12-.04,1.57.22.23.51.34.8.34.27,0,.55-.1.77-.31l1.94-1.86,1.95,1.85c.21.2.49.31.77.31.29,0,.58-.12.81-.35.42-.44.4-1.15-.04-1.57h0Z"/>
          <path class="st3" d="M189.14,214.35c-.48,0-.92-.31-1.06-.79-.18-.59.15-1.2.74-1.38l9-2.71c.58-.18,1.2.15,1.38.74s-.15,1.2-.74,1.38l-9,2.71c-.11.03-.21.05-.32.05h0Z"/>
          <path class="st3" d="M195.79,228.04c-.34,0-.66-.15-.89-.44-.37-.49-.28-1.18.21-1.55l7.28-5.55c.49-.37,1.18-.28,1.55.21s.28,1.18-.21,1.55l-7.28,5.55c-.2.15-.44.23-.67.23h0Z"/>
          <path class="st3" d="M208.37,236.92c-.16,0-.32-.04-.47-.11-.55-.26-.79-.92-.53-1.48l3.09-6.54c.26-.55.92-.79,1.48-.53.55.26.79.92.53,1.48l-3.09,6.54c-.19.4-.59.64-1,.64Z"/>
          <path class="st3" d="M336.39,214.35c-.11,0-.21-.02-.32-.05l-9-2.71c-.59-.18-.92-.8-.74-1.38.18-.59.8-.92,1.38-.74l9,2.71c.59.18.92.8.74,1.38-.15.48-.58.79-1.06.79h0Z"/>
          <path class="st3" d="M329.72,228.04c-.23,0-.47-.08-.67-.23l-7.27-5.55c-.49-.37-.58-1.07-.21-1.55.37-.49,1.07-.58,1.55-.21l7.27,5.55c.49.37.58,1.07.21,1.55-.22.29-.55.44-.89.44h0Z"/>
          <path class="st3" d="M317.15,236.92c-.42,0-.81-.23-1-.64l-3.08-6.54c-.26-.55-.02-1.22.53-1.48s1.22-.02,1.48.53l3.08,6.54c.26.55.02,1.22-.53,1.48-.15.07-.31.11-.47.11Z"/>
          <path class="st3" d="M202.16,188.19c-.41,0-.81-.18-1.08-.53-3.76-4.78-1.56-12.52-1.47-12.85.21-.73.98-1.15,1.71-.94s1.15.98.94,1.71h0c-.02.07-1.89,6.71.98,10.37.47.6.37,1.47-.23,1.94-.25.2-.55.3-.85.3h0Z"/>
          <path class="st3" d="M247.72,311.83c-.06,0-.12,0-.18-.02l-3.7-.74c-.5-.1-.82-.59-.73-1.09.1-.5.59-.82,1.09-.73l3.7.74c.5.1.82.59.73,1.09-.09.44-.47.74-.91.74h0Z"/>
          <path class="st3" d="M242.29,305.99c-.07,0-.14,0-.2-.02l-3.95-.9c-.5-.12-.81-.61-.69-1.11.12-.5.6-.81,1.11-.69l3.95.9c.5.12.81.61.69,1.11-.1.43-.48.72-.9.72h0Z"/>
          <path class="st3" d="M237.11,299.75c-.1,0-.21-.02-.31-.05l-4.19-1.48c-.48-.17-.73-.7-.56-1.18.17-.48.7-.73,1.18-.56l4.19,1.48c.48.17.73.7.56,1.18-.13.38-.49.62-.87.62h0Z"/>
          <path class="st3" d="M250.18,302.34c-.06,0-.13,0-.19-.02l-4.68-.99c-.5-.11-.82-.59-.71-1.09.11-.5.59-.82,1.09-.71l4.68.99c.5.11.82.59.71,1.09-.09.43-.47.73-.9.73Z"/>
          <path class="st3" d="M235.13,309.62c-.09,0-.17-.01-.26-.04l-4.2-1.24c-.49-.15-.77-.66-.63-1.15.15-.49.66-.77,1.15-.63l4.2,1.24c.49.15.77.66.63,1.15-.12.4-.49.66-.89.66h0Z"/>
          <path class="st3" d="M278.02,311.74c-.43,0-.82-.31-.91-.74-.1-.5.23-.99.73-1.09l3.7-.74c.5-.1.99.23,1.09.73s-.23.99-.73,1.09l-3.7.74c-.06.01-.12.02-.18.02h0Z"/>
          <path class="st3" d="M283.2,306.03c-.42,0-.81-.29-.9-.72-.12-.5.2-1,.69-1.11l3.95-.9c.49-.12,1,.2,1.11.69.12.5-.2,1-.69,1.11l-3.95.9c-.07.02-.14.02-.21.02h0Z"/>
          <path class="st3" d="M288.41,299.75c-.38,0-.74-.24-.87-.62-.17-.48.08-1.01.56-1.18l4.19-1.48c.48-.17,1.01.08,1.18.56s-.08,1.01-.56,1.18l-4.19,1.48c-.1.04-.2.05-.31.05h0Z"/>
          <path class="st3" d="M275.8,302.46c-.43,0-.81-.3-.9-.73-.11-.5.21-.99.71-1.09l4.69-.99c.5-.11.99.21,1.09.71.11.5-.21.99-.71,1.09l-4.69.99c-.07.01-.13.02-.19.02h0Z"/>
          <path class="st3" d="M290.38,309.62c-.4,0-.77-.26-.89-.66-.15-.49.14-1,.62-1.15l4.19-1.24c.49-.15,1,.14,1.15.62.15.49-.14,1-.62,1.15l-4.19,1.24c-.09.03-.17.04-.26.04Z"/>
          <path class="st3" d="M276.7,119.48h-12.3v-10.61c0-.7-.57-1.27-1.27-1.27s-1.27.57-1.27,1.27v10.61h-12.3c-.7,0-1.27.57-1.27,1.27s.57,1.27,1.27,1.27h12.3v9.68h-7.99c-.7,0-1.27.57-1.27,1.27s.57,1.27,1.27,1.27h7.99v10.69c0,.7.57,1.27,1.27,1.27s1.27-.57,1.27-1.27v-10.69h7.98c.7,0,1.27-.57,1.27-1.27s-.57-1.27-1.27-1.27h-7.98v-9.68h12.3c.7,0,1.27-.57,1.27-1.27s-.57-1.27-1.27-1.27h0Z"/>
          <g>
            <path class="st6" d="M333.63,148.59h.13c3.39,0,6.6-.96,9.57-2.84,6.8-4.32,11.67-12.24,12.41-20.15.74-7.95-2.53-15.6-9.46-22.11l-1.3-1.07c-7.64-5.45-15.73-7.12-23.42-4.82-7.71,2.31-14.54,8.63-17.41,16.11-.6,1.57-.99,3.17-1.15,4.76-.04.45-.25.84-.54,1.14l29.84,29.54c.35-.35.82-.56,1.35-.56h0Z"/>
            <path class="st3" d="M333.77,152.39h-.15c-1.05,0-1.89-.86-1.89-1.91,0-1.04.85-1.89,1.9-1.89h.13c3.39,0,6.6-.96,9.57-2.84,6.8-4.32,11.67-12.24,12.41-20.15.74-7.95-2.53-15.6-9.46-22.11l-1.3-1.07c-7.63-5.45-15.73-7.12-23.42-4.82-7.71,2.31-14.54,8.63-17.41,16.11-.6,1.57-.99,3.17-1.15,4.76-.11,1.04-1.04,1.81-2.08,1.7-1.04-.11-1.8-1.04-1.7-2.08.19-1.93.66-3.86,1.39-5.75,3.28-8.53,11.08-15.75,19.87-18.38,6.19-1.85,15.86-2.42,26.77,5.4.03.02.07.05.1.08l1.4,1.15s.07.05.1.08c9.92,9.29,11.29,18.87,10.69,25.28-.85,9.04-6.4,18.07-14.15,23.01-3.59,2.28-7.49,3.44-11.61,3.44h0Z"/>
            <path class="st11" d="M341.98,110.06c0,1.31,1.06,2.37,2.37,2.37s2.37-1.06,2.37-2.37-1.06-2.37-2.37-2.37-2.37,1.06-2.38,2.37"/>
            <path class="st21" d="M316.78,131.21s-5.32-5.07-3.22-12.5c2.1-7.42,12.8-13.88,23.43-6.49l.75.61c9.93,7.73,4.84,20.9-1.7,24.25-6.87,3.51-12.89-.67-12.89-.67"/>
            <path class="st11" d="M341.98,110.06c0,1.31,1.06,2.37,2.37,2.37s2.37-1.06,2.37-2.37-1.06-2.37-2.37-2.37-2.37,1.06-2.38,2.37"/>
            <path class="st2" d="M323.85,137.99c.15-.38.5-.64.9-.68.63-.08,2.58-.52,3.21-1.54.32-.52.32-1.31,0-2.01-.22-.49-.79-1.34-2.08-1.55-2.32-.38-4.52,1.35-4.54,1.37-.37.29-.88.32-1.27.08-.4-.24-.6-.71-.51-1.17.26-1.27.47-4.2-.54-5.13-.63-.58-1.58-.84-2.54-.68-.73.12-1.33.47-1.57.92-.7,1.3-.28,2.53-.26,2.58.16.46.01.97-.37,1.26,0,0-.02,0-.03.02l9.58,7.37c-.11-.26-.11-.56,0-.83h0Z"/>
            <path class="st3" d="M327.5,142.73c-.32,0-.64-.14-.86-.41l-2.62-3.21c-.26-.31-.32-.74-.17-1.12.15-.38.5-.64.9-.68.63-.08,2.58-.52,3.21-1.54.32-.52.32-1.31,0-2.01-.22-.49-.79-1.34-2.08-1.55-2.32-.38-4.52,1.35-4.54,1.37-.37.29-.88.32-1.27.08-.4-.24-.6-.71-.51-1.17.26-1.27.47-4.2-.54-5.13-.63-.58-1.58-.84-2.54-.68-.73.12-1.33.47-1.57.92-.7,1.3-.28,2.53-.26,2.58.16.46.01.97-.37,1.26s-.91.31-1.3.04c-1.38-.95-3.06-2.07-3.37-2.22-.55-.27-.79-.93-.52-1.48.26-.55.91-.79,1.47-.53.29.13,1.04.62,1.8,1.12.08-.57.26-1.19.6-1.82.57-1.05,1.74-1.82,3.16-2.06,1.63-.27,3.28.19,4.41,1.23,1.3,1.2,1.52,3.29,1.47,4.92,1.13-.5,2.63-.89,4.25-.63,1.69.27,3.05,1.3,3.74,2.82.63,1.38.58,2.94-.14,4.09-.7,1.14-1.94,1.78-3,2.15l1.5,1.84c.39.47.31,1.17-.16,1.56-.2.17-.46.25-.7.25h0Z"/>
          </g>
          <g>
            <path class="st4" d="M222.53,118.47c-.16-1.59-.55-3.2-1.16-4.76-2.87-7.48-9.71-13.8-17.41-16.11-7.69-2.31-15.79-.64-23.42,4.82l-1.3,1.07c-6.93,6.51-10.2,14.16-9.46,22.11.74,7.92,5.61,15.83,12.41,20.16,2.97,1.89,6.18,2.84,9.57,2.84h.13c.53,0,1,.22,1.35.56l29.84-29.54c-.3-.3-.5-.69-.54-1.14h0Z"/>
            <path class="st3" d="M191.76,152.39c-4.12,0-8.02-1.16-11.61-3.44-7.76-4.93-13.31-13.97-14.16-23.01-.6-6.4.77-15.98,10.69-25.28.03-.03.06-.06.09-.08l1.4-1.15s.07-.05.1-.08c10.92-7.83,20.58-7.26,26.77-5.4,8.79,2.63,16.59,9.85,19.87,18.38.73,1.88,1.19,3.81,1.39,5.74.11,1.04-.66,1.97-1.7,2.08-1.05.1-1.97-.66-2.08-1.7-.16-1.59-.55-3.2-1.16-4.76-2.87-7.48-9.71-13.8-17.41-16.11-7.69-2.31-15.79-.64-23.42,4.82l-1.3,1.07c-6.93,6.51-10.2,14.16-9.46,22.11.74,7.92,5.61,15.83,12.41,20.16,2.97,1.89,6.18,2.84,9.57,2.84h.13c1.04,0,1.89.84,1.9,1.89,0,1.05-.84,1.9-1.89,1.91h-.15,0Z"/>
            <path class="st11" d="M183.54,110.06c0,1.31-1.06,2.37-2.37,2.37s-2.37-1.06-2.37-2.37,1.06-2.37,2.37-2.37,2.37,1.06,2.37,2.37"/>
            <path class="st21" d="M208.73,131.21s5.32-5.07,3.21-12.5c-2.1-7.42-12.8-13.88-23.43-6.49l-.75.61c-9.93,7.73-4.84,20.9,1.7,24.25,6.87,3.51,12.89-.67,12.89-.67"/>
            <path class="st11" d="M183.54,110.06c0,1.31-1.06,2.37-2.37,2.37s-2.37-1.06-2.37-2.37,1.06-2.37,2.37-2.37,2.37,1.06,2.37,2.37"/>
            <path class="st2" d="M211.24,131.46s-.03-.01-.04-.02c-.38-.3-.53-.81-.35-1.27.01-.04.44-1.27-.26-2.57-.24-.45-.85-.8-1.58-.92-.96-.16-1.9.09-2.54.68-1.02.94-.81,3.86-.54,5.13.1.46-.11.93-.51,1.17-.4.24-.91.21-1.27-.08-.02-.01-2.21-1.74-4.53-1.36-1.29.21-1.86,1.06-2.08,1.55-.32.7-.32,1.49,0,2.01.63,1.02,2.59,1.47,3.22,1.54.4.05.75.31.9.69.11.27.1.57,0,.83l9.58-7.36h0Z"/>
            <path class="st3" d="M198.02,142.73c-.25,0-.5-.08-.7-.25-.47-.39-.55-1.08-.16-1.56l1.5-1.84c-1.06-.36-2.3-1.01-3-2.15-.71-1.15-.77-2.72-.14-4.09.69-1.51,2.05-2.55,3.74-2.82,1.61-.27,3.11.14,4.24.63-.05-1.63.17-3.73,1.47-4.92,1.13-1.04,2.78-1.51,4.4-1.23,1.42.24,2.6,1,3.17,2.06.34.63.52,1.25.6,1.82.77-.51,1.51-.99,1.8-1.12.55-.26,1.22-.02,1.47.54s.02,1.21-.54,1.47c-.31.15-1.98,1.27-3.37,2.22-.4.27-.93.26-1.31-.04-.38-.3-.53-.81-.35-1.27.01-.04.44-1.27-.26-2.57-.24-.45-.85-.8-1.58-.92-.96-.16-1.9.09-2.54.68-1.02.94-.81,3.86-.54,5.13.1.46-.11.93-.51,1.17-.4.24-.91.21-1.27-.08-.02-.01-2.21-1.74-4.53-1.36-1.29.21-1.86,1.06-2.08,1.55-.32.7-.32,1.49,0,2.01.63,1.02,2.59,1.47,3.22,1.54.4.05.75.31.9.69.15.38.09.81-.17,1.12l-2.62,3.21c-.22.27-.54.41-.86.41h0Z"/>
          </g>
          <path class="st11" d="M216.86,181.53c0,1.52-1.23,2.75-2.74,2.75s-2.74-1.23-2.74-2.75,1.23-2.74,2.74-2.74,2.74,1.23,2.74,2.74Z"/>
          <path class="st3" d="M228.43,181.78c-.16,0-.33-.03-.48-.09l-24.44-9.16c-.71-.27-1.08-1.06-.81-1.78.27-.72,1.06-1.08,1.78-.81l21.91,8.22-1.12-4.12c-.15-.54.04-1.11.48-1.45.44-.35,1.04-.39,1.52-.12l5.5,3.05c.67.37.91,1.21.54,1.88-.37.67-1.21.91-1.88.54l-2.63-1.47.97,3.56c.14.5-.02,1.04-.4,1.39-.26.23-.59.36-.93.36h0Z"/>
          <path class="st3" d="M301.34,177.84c-.46,1.38-.73,2.9-.73,4.52,0,5.99,3.55,10.85,7.95,10.85s7.94-4.86,7.94-10.85c0-3.27-1.06-6.19-2.74-8.18-4.07,1.45-8.38,2.38-12.42,3.66h0Z"/>
          <path class="st3" d="M322.61,188.19c-.3,0-.6-.1-.85-.3-.6-.47-.7-1.34-.23-1.94,2.4-3.05,1.52-8.52.98-10.37-.21-.73.21-1.5.94-1.71.73-.21,1.5.21,1.71.94.1.33,2.29,8.07-1.47,12.85-.27.35-.68.53-1.08.53h0Z"/>
          <path class="st11" d="M303.67,181.53c0,1.52,1.23,2.75,2.74,2.75s2.74-1.23,2.74-2.75-1.23-2.74-2.74-2.74-2.74,1.23-2.74,2.74Z"/>
          <path class="st3" d="M296.33,181.78c-.34,0-.67-.12-.93-.36-.38-.35-.54-.89-.4-1.39l.97-3.56-2.63,1.47c-.67.37-1.51.13-1.88-.54-.37-.67-.13-1.51.54-1.88l5.5-3.05c.48-.27,1.08-.22,1.52.12s.62.91.48,1.45l-1.12,4.12,21.91-8.22c.71-.27,1.51.09,1.78.81.27.71-.09,1.51-.81,1.78l-24.44,9.16c-.16.06-.32.09-.48.09h0Z"/>
          <path class="st2" d="M317.59,229.89h0Z"/>
          <g>
            <path class="st3" d="M291.71,313.45c-.07-.2.05-.43.26-.5.58-.21,1.16-.44,1.7-.71.2-.1.42-.03.54.15.12.18.03.44-.19.54-.59.3-1.19.53-1.79.75-.22.08-.45-.03-.52-.23h0Z"/>
            <path class="st3" d="M287.85,314.45c-.04-.21.1-.42.32-.46.61-.13,1.22-.27,1.82-.43.22-.06.44.07.5.27s-.08.42-.3.49c-.62.17-1.24.31-1.87.44-.23.04-.44-.09-.48-.31Z"/>
            <path class="st3" d="M283.91,315.04c-.02-.22.14-.41.37-.43.62-.08,1.25-.15,1.86-.25.22-.04.43.11.47.32.04.21-.12.42-.35.45-.63.11-1.27.17-1.89.26-.23.03-.43-.13-.46-.35h0Z"/>
            <path class="st3" d="M279.93,315.31c0-.22.17-.4.39-.41.63-.02,1.25-.08,1.88-.11.23-.01.42.15.44.36.02.22-.15.41-.38.42-.64.04-1.27.09-1.91.11-.23,0-.42-.16-.43-.38h0Z"/>
          </g>
          <g>
            <path class="st3" d="M233.82,313.45c-.07.2-.3.31-.52.23-.61-.22-1.2-.46-1.79-.75-.21-.11-.3-.37-.19-.54.12-.18.35-.25.54-.15.54.27,1.12.5,1.7.71.21.07.33.3.26.5h0Z"/>
            <path class="st3" d="M237.67,314.45c-.04.21-.26.35-.49.31-.62-.14-1.25-.27-1.87-.44-.22-.06-.35-.28-.3-.49s.28-.33.5-.27c.6.17,1.21.3,1.82.43.22.04.37.25.32.46h0Z"/>
            <path class="st3" d="M241.61,315.04c-.02.21-.23.38-.46.35-.63-.09-1.27-.15-1.89-.26-.23-.04-.38-.24-.35-.46.04-.21.24-.36.47-.32.62.11,1.24.17,1.86.25.23.03.39.22.37.43h0Z"/>
            <path class="st3" d="M245.59,315.31c0,.22-.2.39-.43.38-.64-.02-1.27-.08-1.91-.11-.23-.01-.4-.2-.38-.42.02-.21.21-.37.44-.36.63.04,1.25.09,1.88.11.23,0,.4.19.39.4h0Z"/>
          </g>
        </g>
        <path class="st11" d="M209.4,249.61c-.88-.67-1.51-1.23-2.01-1.66-.24-.21-.5-.45-.67-.58-.35.12-1.04.46-1.43.65-1.7,1.07-4.56,3.14-5.58,4.52.09.7.85,2.05,2.13,3.6,3.43-3.2,6.57-5.75,7.56-6.53h0Z"/>
        <path class="st3" d="M203.88,260.51c-.24,0-.49-.1-.67-.29-.35-.37-.34-.96.03-1.31l2.47-2.35c.37-.35.96-.34,1.31.03.35.37.34.96-.03,1.31l-2.47,2.35c-.18.17-.41.26-.64.26h0Z"/>
        <path class="st3" d="M210.31,259.53c-.22,0-.45-.08-.62-.24-.38-.35-.41-.93-.06-1.31l2.47-2.71c.35-.38.93-.41,1.31-.06.38.35.41.93.06,1.31l-2.47,2.71c-.18.2-.43.3-.69.3h0Z"/>
        <path class="st3" d="M210.41,253.68c-.27,0-.54-.12-.73-.35-.32-.4-.25-.98.15-1.3l3.1-2.47c.4-.32.98-.25,1.3.15.32.4.25.98-.15,1.3l-3.1,2.47c-.17.14-.37.2-.58.2h0Z"/>
        <path class="st3" d="M303.47,269.11c-7.65,0-13.7-2.2-15.67-4.94-.23-.33-.36-.73-.35-1.14.08-4.35,0-11.89-.54-13.63-.16-.53-.09-1.1.2-1.56.29-.47.77-.78,1.31-.87,1.87-.3,8.08-1.26,9.37-1.26.47,0,.93.18,1.28.5.27.24,6.48,5.77,12.16,2.26,2.41-1.49,3.68-2.61,4.52-3.36,2.23-1.97,3.19-2.04,6.4-.43.05.03.11.06.15.09.54.34,5.36,3.4,6.99,5.95.66,1.03.61,2.4-.12,4.07-2.07,4.72-9.57,12.1-18.26,13.66-2.59.46-5.1.67-7.45.67h0Z"/>
        <path class="st2" d="M291.27,262.36c2.08,1.86,9.55,4.04,18.99,2.34,8.72-1.57,15.42-9.98,15.71-12.16-1.02-1.37-3.88-3.45-5.58-4.52-.38-.19-1.07-.53-1.43-.65-.17.13-.43.36-.67.58-.94.83-2.35,2.08-5.05,3.74-6.93,4.28-13.92-.45-16.06-2.14-1.19.12-3.69.48-6.25.87.39,3.58.37,9.52.34,11.94h0Z"/>
        <path class="st3" d="M321.8,260.51c-.23,0-.46-.08-.64-.26l-2.47-2.35c-.37-.35-.39-.94-.03-1.31s.94-.39,1.31-.03l2.47,2.35c.37.35.39.94.03,1.31-.18.19-.42.29-.67.29h0Z"/>
        <path class="st3" d="M315.37,259.53c-.25,0-.5-.1-.69-.3l-2.47-2.71c-.35-.38-.31-.97.06-1.31.38-.35.97-.31,1.31.06l2.47,2.71c.35.38.31.97-.06,1.31-.18.16-.4.24-.62.24h0Z"/>
        <path class="st3" d="M315.27,253.68c-.2,0-.41-.07-.58-.2l-3.1-2.47c-.4-.32-.46-.9-.15-1.3.32-.4.9-.46,1.3-.15l3.1,2.47c.4.32.46.9.15,1.3-.18.23-.45.35-.73.35h0Z"/>
        <g>
          <path class="st20" d="M287.82,152.75c-.43,0-.83-.27-.97-.69-.19-.54.1-1.12.64-1.31,1.31-.45,4.9-2.1,5.83-4.28.56-1.31-2.34-4.44-4.65-6.21-.45-.35-.54-.99-.19-1.44.35-.45.99-.54,1.44-.19,1.13.86,6.72,5.34,5.3,8.65-1.48,3.47-6.83,5.34-7.05,5.42-.11.04-.23.06-.34.06h0Z"/>
          <path class="st20" d="M303.95,161.49c-.39,0-.77-.23-.94-.61-1.25-2.8-3.25-5.93-4.23-6.12-1.78-.36-5.02,2.67-6.31,4.2-.37.43-1.02.49-1.45.12-.43-.37-.49-1.02-.12-1.45.48-.57,4.82-5.57,8.29-4.89,2.49.49,5,5.71,5.71,7.3.23.52,0,1.13-.52,1.36-.14.06-.28.09-.42.09h0Z"/>
          <path class="st20" d="M310.32,157c-.23,0-.47-.08-.66-.24-.12-.1-2.82-2.42-4.38-6.5-1.44-3.77,5.28-6.46,6.05-6.76.53-.2,1.13.06,1.33.59.2.53-.06,1.13-.59,1.33-1.96.75-5.39,2.72-4.86,4.1,1.37,3.59,3.76,5.64,3.78,5.66.43.37.49,1.02.12,1.45-.2.24-.5.36-.79.36h0Z"/>
          <path class="st20" d="M302.17,142.67c-.46,0-.92-.07-1.39-.23-3.21-1.13-5.25-6.45-5.48-7.06-.19-.54.08-1.13.61-1.32s1.12.08,1.32.61c.51,1.39,2.27,5.13,4.22,5.82,2.17.76,4.98-2.32,5.88-3.58.33-.46.97-.57,1.44-.23.46.33.57.97.23,1.44-.15.21-3.32,4.56-6.86,4.56h0Z"/>
        </g>
        <path class="st15" d="M269.65,235.8c0,2.39-2.86,1.85-6.4,1.85s-6.4.54-6.4-1.85,2.86-4.32,6.4-4.32,6.4,1.93,6.4,4.32Z"/>
        <g>
          <g>
            <g>
              <path class="st14" d="M255.41,163.22c-.34,0-.61.27-.61.61v9.64c0,.34.27.61.61.61s.61-.27.61-.61v-9.64c0-.34-.27-.61-.61-.61Z"/>
              <path class="st14" d="M260.09,161.54c-.34,0-.61.27-.61.61v13c0,.34.27.61.61.61s.61-.27.61-.61v-13c0-.34-.27-.61-.61-.61h0Z"/>
              <path class="st14" d="M264.78,161.54c-.34,0-.61.27-.61.61v13c0,.34.27.61.61.61s.61-.27.61-.61v-13c0-.34-.27-.61-.61-.61h0Z"/>
              <path class="st14" d="M274.14,164.63c-.34,0-.61.27-.61.61v7.47c0,.34.27.61.61.61s.61-.27.61-.61v-7.47c0-.34-.27-.61-.61-.61Z"/>
              <path class="st14" d="M250.73,164.63c-.34,0-.61.27-.61.61v7.47c0,.34.27.61.61.61s.61-.27.61-.61v-7.47c0-.34-.27-.61-.61-.61Z"/>
              <path class="st14" d="M269.46,163.22c-.34,0-.61.27-.61.61v9.64c0,.34.27.61.61.61s.61-.27.61-.61v-9.64c0-.34-.27-.61-.61-.61Z"/>
            </g>
            <path class="st15" d="M293.44,173.58c-11.21-8.04-29.36-7.97-31.2-7.95-1.73-.03-17.86-.09-29.1,6.57-2.43,1.44-9.11,6.17-9.11,10.5,0,5.17,9.3,9.48,15.21,5.17,5.44-3.96,40.55-3.96,45.98,0,5.92,4.31,15.21,0,15.21-5.17,0-4.32-5.4-7.98-7-9.12h0Z"/>
          </g>
          <g>
            <path class="st11" d="M283.55,192.54c-9.62-5.18-15.17,2.22-15.17,2.22h-11.1s-5.55-7.4-15.17-2.22c-9.62,5.18-5.92,22.02,7.4,21.84,0,0,10.46,2.08,13.32-7.38,2.86,9.46,13.32,7.38,13.32,7.38,13.32.18,17.02-16.66,7.4-21.84h0Z"/>
            <path class="st17" d="M249.33,203.03c0,1.66-1.35,3.01-3.01,3.01s-3.01-1.35-3.01-3.01,1.35-3.01,3.01-3.01,3.01,1.35,3.01,3.01Z"/>
            <path class="st17" d="M282.45,202.91c0,1.66-1.35,3.01-3.01,3.01s-3.01-1.35-3.01-3.01,1.35-3.01,3.01-3.01,3.01,1.35,3.01,3.01Z"/>
            <path class="st19" d="M269.93,193.78c0,5.17-3.18,9.36-7.1,9.36s-7.1-4.19-7.1-9.36,3.18-8.56,7.1-8.56,7.1,3.4,7.1,8.56Z"/>
            <path class="st3" d="M280.42,204.27c.08-.2.12-.34.12-.38.17-.6-.18-1.23-.77-1.4-.59-.17-1.23.17-1.4.77-.01.04-1.36,4.57-6.09,5.21-2.12.29-4.04-.25-5.53-1.55-1.68-1.47-2.65-3.79-2.65-6.37,0-.62-.5-1.13-1.13-1.13s-1.13.5-1.13,1.13c0,2.58-.97,4.9-2.65,6.37-1.49,1.3-3.41,1.84-5.52,1.55-4.7-.64-6.04-5.03-6.1-5.22-.17-.6-.8-.94-1.39-.77-.6.17-.95.8-.77,1.4,0,.03.05.18.13.39-2,1.79-7.47,7.58-4.86,15.53,1.47,4.49,6.67,6.75,12.65,5.5,4.34-.91,8.43-.92,9.44-.91.05,0,.09,0,.14,0h.16s.09,0,.14,0c1.01,0,5.1,0,9.45.91,1.38.29,2.67.43,3.86.43,4.49,0,7.56-2.04,8.79-5.94,2.51-7.99-2.92-13.76-4.88-15.52h0Z"/>
            <path class="st11" d="M283.16,219.12c-1.19,3.78-4.56,5.12-10.03,3.98-4.62-.97-8.86-.97-10.04-.96h-.17c-1.18-.02-5.43,0-10.04.96-4.81,1-8.94-.63-10.04-3.99-2.06-6.28,1.84-10.92,3.77-12.74,1.13,1.75,3.2,3.88,6.78,4.37.46.06.93.09,1.39.09,2.23,0,4.3-.75,5.93-2.18.96-.83,1.72-1.88,2.29-3.05.57,1.17,1.33,2.22,2.29,3.05,1.63,1.43,3.71,2.18,5.94,2.18.46,0,.92-.03,1.39-.09,3.58-.49,5.65-2.62,6.78-4.37,1.91,1.81,5.77,6.45,3.78,12.76h0Z"/>
            <path class="st3" d="M276.5,218.78c-.25,0-.48-.13-.61-.35l-1.81-3.09-.66,1.39c-.13.28-.43.44-.74.39l-1.75-.27h0s-6.1-.4-7.83-.4-7.93.41-7.99.41l-1.69.27c-.31.05-.61-.11-.74-.39l-.66-1.39-1.81,3.09c-.13.23-.38.35-.64.35-.26-.01-.49-.16-.6-.4l-1.77-3.74-.79,1.51c-.18.34-.6.47-.95.3-.34-.18-.47-.6-.3-.95l1.44-2.75c.12-.23.37-.38.64-.38.27,0,.5.16.62.4l1.8,3.82,1.8-3.08c.13-.22.38-.35.63-.35.26.01.49.16.6.4l1.01,2.11,1.24-.19c.32-.02,6.34-.42,8.15-.42s7.73.4,7.99.42l1.3.2,1.01-2.11c.11-.23.35-.39.6-.4.26.01.5.12.63.35l1.8,3.08,1.8-3.82c.12-.24.35-.39.62-.4.27,0,.51.14.64.38l1.44,2.75c.18.35.05.77-.3.95-.35.18-.77.05-.95-.3l-.79-1.51-1.77,3.74c-.11.23-.35.39-.6.4h-.03,0Z"/>
          </g>
          <g>
            <path class="st3" d="M202.2,188.21c-.41,0-.81-.18-1.09-.53-3.76-4.78-1.56-12.53-1.47-12.86.21-.73.98-1.15,1.71-.94.73.21,1.15.98.94,1.71-.03.09-1.89,6.72.98,10.38.47.6.37,1.47-.23,1.94-.25.2-.55.3-.85.3h0Z"/>
            <path class="st3" d="M232.82,175.54l-5.5-3.06c-.48-.27-1.08-.22-1.52.12s-.63.92-.48,1.45l1.12,4.12-21.92-8.22c-.71-.27-1.51.09-1.78.81-.27.71.09,1.51.81,1.78l6.83,2.56c-1.28,1.93-2.07,4.47-2.07,7.28,0,5.99,3.56,10.85,7.95,10.85s7.95-4.86,7.95-10.85c0-.74-.06-1.46-.17-2.16l3.96,1.49c.16.06.32.09.49.09.34,0,.67-.12.93-.36.39-.35.54-.89.4-1.39l-.97-3.56,2.63,1.47c.67.37,1.51.13,1.88-.54.37-.67.13-1.51-.54-1.88h0Z"/>
            <path class="st11" d="M216.9,181.55c0,1.52-1.23,2.75-2.75,2.75s-2.74-1.23-2.74-2.75,1.23-2.74,2.74-2.74,2.75,1.23,2.75,2.74Z"/>
          </g>
          <g>
            <path class="st3" d="M322.7,188.21c-.3,0-.6-.1-.85-.3-.6-.47-.7-1.34-.23-1.94,2.88-3.66,1-10.31.98-10.38-.21-.73.21-1.5.94-1.71.72-.21,1.5.21,1.71.94.09.33,2.29,8.07-1.47,12.86-.27.35-.68.53-1.08.53h0Z"/>
            <path class="st3" d="M322.16,170.76c-.27-.72-1.07-1.08-1.78-.81l-21.92,8.22,1.12-4.12c.15-.54-.04-1.11-.48-1.45s-1.04-.39-1.52-.12l-5.5,3.06c-.67.37-.91,1.21-.54,1.88.37.66,1.21.91,1.88.54l2.63-1.47-.97,3.56c-.14.5.02,1.04.4,1.39.26.23.59.36.93.36.16,0,.33-.03.49-.09l3.95-1.48c-.11.69-.16,1.42-.16,2.16,0,5.99,3.56,10.85,7.95,10.85s7.95-4.86,7.95-10.85c0-2.81-.79-5.35-2.08-7.28l6.84-2.57c.71-.27,1.08-1.06.81-1.78h0Z"/>
            <path class="st11" d="M303.76,181.55c0,1.52,1.23,2.75,2.75,2.75s2.74-1.23,2.74-2.75-1.23-2.74-2.74-2.74-2.75,1.23-2.75,2.74Z"/>
          </g>
        </g>
        <path class="st11" d="M325.97,252.54c-1.02-1.37-3.88-3.45-5.58-4.52-.38-.19-1.07-.53-1.43-.65-.17.13-.43.36-.67.58-.5.44-1.13,1-2.01,1.66.99.78,4.13,3.33,7.56,6.53,1.27-1.55,2.04-2.9,2.13-3.6h0Z"/>
        <g>
          <g>
            <path class="st3" d="M207.16,251.42c-.12-.15-.1-.37.05-.5l1.29-1.08c.15-.13.38-.12.5.04s.1.37-.06.5l-1.28,1.08c-.15.13-.38.12-.5-.03h0Z"/>
            <path class="st3" d="M204.48,253.73c-.13-.15-.11-.37.04-.5l1.27-1.1c.15-.13.38-.12.5.03s.1.37-.05.5l-1.27,1.1c-.15.13-.38.12-.5-.02Z"/>
            <path class="st3" d="M201.87,256.1c-.13-.14-.12-.37.03-.51l1.24-1.14c.15-.13.38-.13.51.02.13.14.11.37-.04.5l-1.24,1.13c-.15.14-.37.14-.5,0h0Z"/>
          </g>
          <g>
            <path class="st3" d="M318.52,251.42c-.12.15-.35.16-.5.03l-1.28-1.08c-.15-.13-.18-.35-.06-.5.12-.15.35-.16.5-.04l1.29,1.08c.15.13.18.35.05.5Z"/>
            <path class="st3" d="M321.19,253.73c-.13.15-.35.15-.5.02l-1.27-1.1c-.15-.13-.17-.36-.05-.5s.35-.16.5-.03l1.27,1.1c.15.13.17.36.04.5Z"/>
            <path class="st3" d="M323.81,256.1c-.13.14-.36.14-.5,0l-1.24-1.13c-.15-.13-.17-.36-.04-.5.13-.14.35-.15.5-.02l1.24,1.14c.15.14.16.37.03.5h0Z"/>
          </g>
        </g>
      </g>
      <path class="st0" d="M420.15,179.79c-1.83,0-3.23,1.62-2.98,3.43.92,6.79,1.39,13.72,1.39,20.77,0,13.93-1.85,27.42-5.3,40.26-.51,1.91.93,3.79,2.91,3.79h53.5c.9,0,1.75-.4,2.32-1.09l51.65-62.21c1.63-1.97.23-4.94-2.32-4.94h-101.16ZM108.28,179.79h-53.61c-.9,0-1.75.4-2.32,1.09L.7,243.09c-1.63,1.97-.23,4.94,2.32,4.94h109.25c1.98,0,3.43-1.88,2.91-3.79-3.46-12.83-5.3-26.33-5.3-40.26,0-7.04.47-13.98,1.39-20.77.24-1.81-1.16-3.43-2.98-3.43h0Z"/>
      <g>
        <path class="st9" d="M121.06,288.75l-4.47-.67-1.92-3.63-11.41,6.04,1.23,2.32-5.53-.83,1.63-5.29,9.36-4.96,4.18,1.68-3.96-7.49,4.47.67,6.44,12.16h0Z"/>
        <path class="st9" d="M110.15,304.21l-5.31-2.08,14.68-9.37-1.44-2.26,4.51.31,2.48,3.89-14.91,9.52h0Z"/>
        <path class="st9" d="M123.23,319.41l-8.07-2.39-1.51-8.41,10.74-8.18,8.67,3.87.77,5.53-4.58-1.26-.62-5.57-6.83,5.2,4.29,1.48,3.64,4.79-6.49,4.94h0ZM120.06,316.03l4.43-3.37-3.13-4.12-4.43,3.37,3.13,4.12h0Z"/>
        <path class="st9" d="M135.57,333.54l-6.65-.5-2.36-8.18,9.86-9.27-1.82-1.93,5.58-.68-.17,5.57,3.75-.46,3.87,4.11-4.51.51-3.54-3.77-4.44,4.17,3.2.75,3.52,3.75-3.79.46-3.85-4.09-4.05,3.81,5.4,5.74h0Z"/>
        <path class="st9" d="M152.94,348.74l-5.45,1.27-.45-5.52,3.98-4.69-3.94-3.35-4.34,5.11-5.69-.43,11.28-13.27-2.02-1.72,5.47-1.3.45,5.56,5.6-.42,1.85,6.75-2.12,2.49-3.47-.19,1.2,2.86-4.36,5.13,2,1.7h0ZM153.62,336.76l2.17-2.55-3.94-3.35-4.4,5.17,6.17.73h0Z"/>
        <path class="st9" d="M183.54,348.92l-4.2,1.67-3.49-2.17-6.82,10.97,2.23,1.39-5.2,2.07-1.26-5.39,5.6-9,4.45-.66-7.19-4.47,4.2-1.67,11.68,7.26h0Z"/>
        <path class="st9" d="M190.03,370.45l-6.4,1.89-5.1-6.81,5.93-12.16-2.39-1.16,4.98-2.61,1.81,5.27,3.35-1.76,5.07,2.47-4.03,2.08-4.65-2.27-2.67,5.48,3.26-.43,4.62,2.25-3.38,1.77-5.05-2.46-2.44,5,7.08,3.46h0Z"/>
        <path class="st9" d="M211.27,378.35l-4.67,3.12-2.38-5,2.06-5.79-4.87-1.74-2.38,6.69-5.34,1.24,5.65-15.88,8.13-2.51,5.83,6.23-4.53,12.75,2.5.89h0ZM207.62,366.91l1.12-3.16-4.87-1.74-2.28,6.4,6.02-1.51h0Z"/>
        <path class="st9" d="M243.58,385.14l-4.13,3.8-3.12-4.57,2.5-13.27-4.78-.9-2.6,13.82-5.15,2.44,3.22-17.11-4.78-.9-2.6,13.82-5.15,2.44,3.22-17.11-2.61-.49,4.11-3.83,3.14,4.6,4.66-3.13,4.66,4.89,4.68-3.13,4.63,4.88-2.5,13.27,2.61.49h0Z"/>
        <path class="st9" d="M272.27,378.52l-4.58,3.43-4.86.05.05,4.78-4.58,3.4-.19-17.41-2.66.03,3.28-4.56,3.98,3.9,3.95-3.98,5.52,3.88.07,6.49h0ZM267.6,372.67l-4.86.05.09,8.69,4.83-3.63-.05-5.12h0Z"/>
        <path class="st9" d="M291.3,383.63l-3.83,4.96-7.71-3.05-1.51-13.44-2.66.3,2.26-3.91,4.58-.51,1.85,16.45,7.03-.79h0Z"/>
        <path class="st9" d="M312.7,379.07l-2.28,5.13-4.68-2.96-1.35-6-5.05,1.14,1.56,6.93-3.85,3.9-3.71-16.45,5.54-6.46,8.25,2.16,2.97,13.2,2.59-.58h0ZM303.51,371.35l-.73-3.27-5.05,1.14,1.49,6.63,4.29-4.49h0Z"/>
        <path class="st9" d="M329.25,365.66l-3.4,5.02,1.43,4-2.39,5.01-4.65-3.12,2.5-.89-1.24-3.45-5.44-.69-2.28-6.37-2.53.9,1.3-4.32,4.34-1.55,3.29,9.21,4.87-1.74-2.59-7.24,3.33-4.37,3.44,9.61h.01Z"/>
        <path class="st9" d="M349.94,363.31l-3.9,7.46-8.54-.13-5.96-12.12,5.47-7.76,5.57.31-2.12,4.25-5.59-.46,3.78,7.7,2.28-3.92,5.39-2.65,3.6,7.33h0ZM346.01,365.77l-2.45-4.99-4.64,2.28,2.45,4.99,4.64-2.28Z"/>
        <path class="st9" d="M370.25,351.18l-.35,5.59-5.41-1.16-3.34-5.17-4.34,2.81,3.64,5.64-2.05,5.32-9.46-14.63-2.23,1.44.33-5.61,5.45,1.17,1.22-5.48,7,.17,1.78,2.74-1.19,3.26,3.08-.33,3.66,5.66,2.2-1.43h.01ZM358.98,347.08l-1.82-2.82-4.34,2.81,3.69,5.7,2.47-5.7h0Z"/>
        <path class="st9" d="M385.4,338.07l-2,8.18-8.32,1.91-8.39-10,2.01-8.22,8.32-1.87,8.39,10h0ZM382.18,341.4l-8.3-9.89-3.96,3.32,8.3,9.89,3.96-3.32Z"/>
        <path class="st9" d="M403.36,320.19l1.04,5.5-5.55.23.15,5.59-6.81,1.58-9.89-9.19-1.82,1.97-.84-4.44,3.14-3.38,12.13,11.26,3.52-3.79-10.31-9.57.66-5.68,12.78,11.87,1.81-1.95h0Z"/>
        <path class="st9" d="M416.93,301.63l1.72,5.33-5.46.9-10.97-7.87-3.01,4.2,11.42,8.2.04,5.7-14.15-10.15-1.55,2.16-1.74-5.34,5.5-.9-.87-5.55,6.58-2.4,10.97,7.88,1.53-2.13h0Z"/>
        <path class="st9" d="M426.39,283.63l1.12,8.37-7.03,4.8-9.34-5.07-.63-4.93-3.19,5.87-1.91-4.09,4.74-8.72,5.32-2.17,10.93,5.94h0ZM424.61,287.91l-11.35-6.17-2.47,4.55,11.35,6.17,2.47-4.55Z"/>
      </g>
      <g>
        <path class="st11" d="M130.09,95.98l2.08,16.96-11.11,6.72,1.11,10.31-14.98,9.52-24.32-14.27-2.8,4.78-4.63-10.76,11.24-2.93-2.87-11.35,12.86-5.69-2.84-11.39,12.84-5.64,23.42,13.74h0ZM116.08,121.82l-23.22-13.62-5.13,8.75,23.22,13.62,5.13-8.75ZM126.08,104.78l-23.22-13.62-5.13,8.75,23.22,13.62,5.13-8.75Z"/>
        <path class="st11" d="M155.86,72.98l-.7,13.88-16.92,5.34-19.82-20.06-3.94,3.89-1.7-11.59,11.62.07-1.15-7.8,8.37-8.27,1.31,9.36-7.67,7.58,8.93,9.03,1.4-6.71,7.63-7.54,1.15,7.88-8.33,8.23,8.15,8.25,11.69-11.55h0Z"/>
        <path class="st11" d="M191.58,34.26l-5.17,10.74-8.95,4.77,4.69,8.8-5.2,10.69-17.07-32.04-4.89,2.6,1.68-11.59,11.12,3.39,3.49-11.17,13.94,1.88,6.36,11.93h0ZM177.31,27.93l-8.95,4.77,8.52,15.99,5.44-11.35-5.02-9.41h0Z"/>
        <path class="st11" d="M228.53,37.87l-5.9,11.66-16.99-3.21-8.36-26.94-5.34,1.66,3.1-8.89,9.19-2.85,10.23,32.95,14.08-4.37h0Z"/>
        <path class="st11" d="M265.02,33.9l-5.95,10.07-8.98-7.25-1.36-12.75-10.72,1.15,1.57,14.72-8.9,7.16-3.74-34.94,13.01-12.06,16.57,6.43,3,28.04,5.5-.59h0ZM247.84,15.69l-.74-6.95-10.72,1.15,1.51,14.08,9.96-8.27Z"/>
        <path class="st11" d="M299.65,22.89l-10.97,6.27-1,8.8-9.08,7.18-5.84-10.1,5.5.62.85-7.59-9.55-6.3,1.58-14.01-5.56-.63,6.41-6.9,9.55,1.08-2.29,20.27,10.71,1.21,1.8-15.92,10.26-5.12-2.39,21.14h0Z"/>
        <path class="st11" d="M351.64,58.69l-10.2,5.65-4.09-10.83,5.33-11.66-9.81-4.48-5.81,12.72-11.65,2.37,15.08-33.02-5.09-2.32,8.23-4.57,8.75,3.99-9.03,19.77,12.78-2.05,4.24-9.28,11.34-1.68-15.1,33.08,5.04,2.3h0Z"/>
        <path class="st11" d="M381.76,82.33l-11.27,3.14-1.46-11.44,7.84-10.14-8.53-6.6-9.06,11.7-11.39-1,21.5-27.79,17.74.31,7.49,16.12-17.26,22.31,4.38,3.39ZM381.97,57.29l4.28-5.53-8.53-6.6-8.67,11.2,12.91.93h0Z"/>
        <path class="st11" d="M406.53,112.96l-11.66.55,1.17-11.48,9.94-8.1-6.81-8.36-10.85,8.83-11.5-3.04,28.15-22.93-3.5-4.29,11.7-.58-1.18,11.56,11.63,1.27,1.24,14.54-5.29,4.31-7.03-1.71,1.39,6.31-10.89,8.87,3.46,4.25h0ZM412.45,88.67l5.42-4.42-6.81-8.36-10.98,8.94,12.36,3.83h0Z"/>
        <path class="st11" d="M422.06,143.11l-15.56-8.24.36-17.74,19.91-9.7,9.12,4.89-6.1-12.52,9.26,1.71,9.07,18.6-2.75,11.65-23.31,11.36h0ZM416.96,134.91l24.2-11.8-4.72-9.69-24.2,11.8,4.72,9.69Z"/>
      </g>
      <g>
        <path class="st10" d="M453.35,215.86c-1.52-1.77-4.11-3.38-7.7-4.79l-4.11-1.6c-2.56-1.02-4.36-1.99-5.36-2.89-.98-.88-1.45-1.91-1.45-3.15,0-3.79,2.75-5.64,8.42-5.64,3.01,0,6.35.78,9.93,2.33l.41.18v-5l-.15-.08c-1.34-.72-2.96-1.29-4.83-1.69-1.86-.43-3.7-.65-5.46-.65-4.25,0-7.65.96-10.11,2.84-2.49,1.9-3.75,4.53-3.75,7.82,0,2.31.78,4.35,2.32,6.08,1.55,1.66,4.11,3.2,7.59,4.56l4.12,1.6c2.66,1.02,4.52,2.02,5.51,2.98.97.93,1.46,2.14,1.46,3.58,0,1.98-.8,3.5-2.44,4.62-1.62,1.13-3.92,1.71-6.83,1.71-3.51,0-7.25-.8-11.11-2.38l-.4-.16v5.01l.16.08c.91.44,2.02.84,3.31,1.19,1.29.36,2.69.65,4.15.86,1.5.22,2.95.32,4.32.32,4.5,0,8.05-.99,10.54-2.95,2.55-2.01,3.85-4.84,3.85-8.41,0-2.48-.8-4.63-2.37-6.39h0Z"/>
        <path class="st7" d="M453.35,215.86c-1.52-1.77-4.11-3.38-7.7-4.79l-4.11-1.6c-2.56-1.02-4.36-1.99-5.36-2.89-.98-.88-1.45-1.91-1.45-3.15,0-3.79,2.75-5.64,8.42-5.64,3.01,0,6.35.78,9.93,2.33l.41.18v-5l-.15-.08c-1.34-.72-2.96-1.29-4.83-1.69-1.86-.43-3.7-.65-5.46-.65-4.25,0-7.65.96-10.11,2.84-2.49,1.9-3.75,4.53-3.75,7.82,0,2.31.78,4.35,2.32,6.08,1.55,1.66,4.11,3.2,7.59,4.56l4.12,1.6c2.66,1.02,4.52,2.02,5.51,2.98.97.93,1.46,2.14,1.46,3.58,0,1.98-.8,3.5-2.44,4.62-1.62,1.13-3.92,1.71-6.83,1.71-3.51,0-7.25-.8-11.11-2.38l-.4-.16v5.01l.16.08c.91.44,2.02.84,3.31,1.19,1.29.36,2.69.65,4.15.86,1.5.22,2.95.32,4.32.32,4.5,0,8.05-.99,10.54-2.95,2.55-2.01,3.85-4.84,3.85-8.41,0-2.48-.8-4.63-2.37-6.39h0Z"/>
      </g>
      <g>
        <polygon class="st8" points="92.42 224.17 72.29 194.3 72.2 194.17 67.05 194.17 67.05 233.6 72.55 233.6 72.55 203.6 92.68 233.47 92.77 233.6 97.93 233.6 97.93 194.17 92.42 194.17 92.42 224.17"/>
        <polygon class="st7" points="92.42 224.17 72.29 194.3 72.2 194.17 67.05 194.17 67.05 233.6 72.55 233.6 72.55 203.6 92.68 233.47 92.77 233.6 97.93 233.6 97.93 194.17 92.42 194.17 92.42 224.17"/>
      </g>
    </g>
  </g>
</svg>